<svg width="117" height="16" viewBox="0 0 117 16" fill="none" xmlns="http://www.w3.org/2000/svg">
<rect x="0.0546875" y="0.12207" width="14.9959" height="14.9959" rx="2.20528" fill="#57B2B5"/>
<rect x="1.59801" y="1.66441" width="11.9085" height="11.9085" rx="0.661585" fill="#57B2B5" stroke="#006467" stroke-width="0.882113"/>
<rect x="2.03906" y="14.2344" width="2.86687" height="1.76423" rx="0.661585" fill="#57B2B5"/>
<rect x="10.1953" y="14.2344" width="2.86687" height="1.76423" rx="0.661585" fill="#57B2B5"/>
<rect x="12.1797" y="6.7373" width="2.42581" height="1.76423" rx="0.661585" transform="rotate(-90 12.1797 6.7373)" fill="#006467"/>
<rect x="12.1797" y="10.4863" width="2.42581" height="1.76423" rx="0.661585" transform="rotate(-90 12.1797 10.4863)" fill="#006467"/>
<circle cx="5.89971" cy="7.51006" r="2.42581" stroke="#006467" stroke-width="0.661585"/>
<circle cx="5.89507" cy="7.5103" r="0.882113" fill="#006467" stroke="#006467" stroke-width="0.661585"/>
<rect x="5.78906" y="6.95898" width="4.19004" height="1.10264" rx="0.551321" fill="#006467"/>
<path d="M30.0096 13.1113L28.0886 5.77247L26.1677 13.1113H23.0319L20.0438 1.32319H23.0812L24.6737 8.3501L26.5454 1.32319H29.6812L31.4872 8.38294L33.0961 1.32319H36.1335L33.129 13.1113H30.0096ZM40.4867 13.2591C37.7613 13.2591 35.9389 11.4203 35.9389 8.67846C35.9389 6.03516 37.8434 4.11425 40.4703 4.11425C43.3927 4.11425 45.3464 6.49487 44.8375 9.40086H38.8449C38.9926 10.5173 39.518 11.0755 40.421 11.0755C41.2091 11.0755 41.7345 10.7471 41.9807 10.1068H44.7882C44.2464 12.1262 42.6867 13.2591 40.4867 13.2591ZM40.4046 6.18292C39.5673 6.18292 39.0747 6.65905 38.8777 7.64413H41.833C41.8001 6.75756 41.2419 6.18292 40.4046 6.18292ZM51.3689 13.1113V12.2576C50.745 12.9636 49.9734 13.2755 48.8405 13.2755C47.0017 13.2755 45.7703 12.1755 45.7703 10.5009C45.7703 8.77697 47.1659 7.84114 49.6942 7.84114C50.1704 7.84114 50.6137 7.87398 50.9913 7.93965V7.51278C50.9913 6.74114 50.548 6.31427 49.7599 6.31427C48.9883 6.31427 48.5286 6.74114 48.4301 7.51278H45.9017C46.0659 5.46053 47.5927 4.11425 49.7763 4.11425C52.2062 4.11425 53.6346 5.4277 53.6346 7.66055V13.1113H51.3689ZM48.4136 10.4188C48.4136 10.9934 48.8077 11.3382 49.4972 11.3382C50.4331 11.3382 50.9913 10.8949 50.9913 10.1725V9.61429C50.5644 9.5322 50.236 9.49936 49.8748 9.49936C48.9226 9.49936 48.4136 9.81131 48.4136 10.4188ZM58.2246 13.1113H55.3842V1.32319H58.2246V13.1113ZM65.9928 10.3531V12.7994C65.369 13.1442 64.7779 13.2755 63.9898 13.2755C62.0033 13.2755 60.8376 12.0934 60.8376 10.074V6.72472H59.1958V4.27843H60.8376V1.68439H63.6451V4.27843H66.0585V6.72472H63.6451V9.41727C63.6451 10.271 64.0063 10.665 64.7779 10.665C65.2376 10.665 65.6809 10.5501 65.9928 10.3531ZM70.1204 8.46503V13.1113H67.313V1.32319H70.1204V5.23068C70.7607 4.54112 71.401 4.11425 72.5175 4.11425C74.2578 4.11425 75.4891 5.27993 75.4891 7.43069V13.1113H72.6817V8.36652C72.6817 7.2501 72.2876 6.64263 71.4339 6.64263C70.7443 6.64263 70.1204 7.13517 70.1204 8.46503ZM87.2882 1.32319L83.0852 13.1113H79.703L75.5329 1.32319H78.8986L81.4926 9.48295L84.1687 1.32319H87.2882ZM92.2376 13.1113V12.2576C91.6137 12.9636 90.842 13.2755 89.7092 13.2755C87.8704 13.2755 86.639 12.1755 86.639 10.5009C86.639 8.77697 88.0345 7.84114 90.5629 7.84114C91.039 7.84114 91.4823 7.87398 91.8599 7.93965V7.51278C91.8599 6.74114 91.4167 6.31427 90.6286 6.31427C89.8569 6.31427 89.3972 6.74114 89.2987 7.51278H86.7704C86.9345 5.46053 88.4614 4.11425 90.645 4.11425C93.0749 4.11425 94.5032 5.4277 94.5032 7.66055V13.1113H92.2376ZM89.2823 10.4188C89.2823 10.9934 89.6764 11.3382 90.3659 11.3382C91.3017 11.3382 91.8599 10.8949 91.8599 10.1725V9.61429C91.4331 9.5322 91.1047 9.49936 90.7435 9.49936C89.7913 9.49936 89.2823 9.81131 89.2823 10.4188ZM101.49 9.31877V4.27843H104.298V13.1113H101.72V12.1591C101.228 12.8158 100.292 13.2755 99.2574 13.2755C97.5007 13.2755 96.1708 12.1755 96.1708 9.84414V4.27843H98.9783V9.31877C98.9783 10.2874 99.4544 10.7636 100.242 10.7636C100.801 10.7636 101.49 10.3203 101.49 9.31877ZM108.97 13.1113H106.129V1.32319H108.97V13.1113ZM116.738 10.3531V12.7994C116.114 13.1442 115.523 13.2755 114.735 13.2755C112.748 13.2755 111.583 12.0934 111.583 10.074V6.72472H109.941V4.27843H111.583V1.68439H114.39V4.27843H116.804V6.72472H114.39V9.41727C114.39 10.271 114.751 10.665 115.523 10.665C115.983 10.665 116.426 10.5501 116.738 10.3531Z" fill="url(#paint0_linear_10308_33141)"/>
<defs>
<linearGradient id="paint0_linear_10308_33141" x1="19.9453" y1="7.11133" x2="117.945" y2="7.11133" gradientUnits="userSpaceOnUse">
<stop offset="0.315" stop-color="#57B2B5"/>
<stop offset="0.69" stop-color="#060606"/>
<stop offset="1" stop-color="#060606"/>
</linearGradient>
</defs>
</svg>
