<svg width="226" height="67" viewBox="0 0 226 67" fill="none" xmlns="http://www.w3.org/2000/svg">
<rect y="16.2939" width="22.1111" height="22.1111" rx="3.25163" fill="#57B2B5"/>
<rect x="2.27545" y="18.5694" width="17.5588" height="17.5588" rx="0.97549" fill="#57B2B5" stroke="#006467" stroke-width="1.30065"/>
<rect x="2.92578" y="37.1025" width="4.22712" height="2.60131" rx="0.97549" fill="#57B2B5"/>
<rect x="14.957" y="37.1025" width="4.22712" height="2.60131" rx="0.97549" fill="#57B2B5"/>
<rect x="17.8828" y="26.0479" width="3.5768" height="2.60131" rx="0.97549" transform="rotate(-90 17.8828 26.0479)" fill="#006467"/>
<rect x="17.8828" y="31.5752" width="3.5768" height="2.60131" rx="0.97549" transform="rotate(-90 17.8828 31.5752)" fill="#006467"/>
<circle cx="8.6164" cy="27.1877" r="3.5768" stroke="#006467" stroke-width="0.97549"/>
<circle cx="8.6176" cy="27.1889" r="1.30065" fill="#006467" stroke="#006467" stroke-width="0.97549"/>
<rect x="8.45312" y="26.376" width="6.1781" height="1.62582" rx="0.812909" fill="#006467"/>
<path d="M51.893 39.2021L48.0678 24.5879L44.2426 39.2021H37.998L32.0477 15.7279H38.0961L41.2674 29.7209L44.9946 15.7279H51.2391L54.8354 29.7863L58.0395 15.7279H64.0879L58.1048 39.2021H51.893ZM72.7566 39.4964C67.3294 39.4964 63.7004 35.8347 63.7004 30.3748C63.7004 25.111 67.4929 21.2858 72.7239 21.2858C78.5435 21.2858 82.434 26.0265 81.4205 31.8133H69.4872C69.7815 34.0365 70.8277 35.1481 72.6258 35.1481C74.1952 35.1481 75.2414 34.4942 75.7318 33.2191H81.3224C80.2435 37.2405 77.1376 39.4964 72.7566 39.4964ZM72.5931 25.4053C70.9258 25.4053 69.9449 26.3534 69.5526 28.315H75.4375C75.3721 26.5496 74.2605 25.4053 72.5931 25.4053ZM94.4269 39.2021V37.5021C93.1845 38.9079 91.6479 39.5291 89.392 39.5291C85.7303 39.5291 83.2782 37.3386 83.2782 34.0038C83.2782 30.5709 86.0572 28.7074 91.0921 28.7074C92.0402 28.7074 92.9229 28.7728 93.6749 28.9035V28.0535C93.6749 26.5169 92.7922 25.6668 91.2229 25.6668C89.6862 25.6668 88.7708 26.5169 88.5746 28.0535H83.5398C83.8667 23.9667 86.9072 21.2858 91.2555 21.2858C96.0943 21.2858 98.9386 23.9014 98.9386 28.3477V39.2021H94.4269ZM88.5419 33.8403C88.5419 34.9846 89.3266 35.6712 90.6997 35.6712C92.5633 35.6712 93.6749 34.7885 93.6749 33.3499V32.2383C92.8249 32.0749 92.171 32.0095 91.4517 32.0095C89.5555 32.0095 88.5419 32.6307 88.5419 33.8403ZM108.079 39.2021H102.423V15.7279H108.079V39.2021ZM123.548 33.7096V38.581C122.306 39.2675 121.129 39.5291 119.56 39.5291C115.604 39.5291 113.282 37.1751 113.282 33.1538V26.4842H110.013V21.6128H113.282V16.4471H118.873V21.6128H123.679V26.4842H118.873V31.846C118.873 33.5461 119.592 34.3307 121.129 34.3307C122.044 34.3307 122.927 34.1019 123.548 33.7096ZM131.768 29.9497V39.2021H126.177V15.7279H131.768V23.509C133.043 22.1359 134.318 21.2858 136.541 21.2858C140.007 21.2858 142.459 23.6071 142.459 27.89V39.2021H136.868V29.7536C136.868 27.5304 136.083 26.3207 134.383 26.3207C133.01 26.3207 131.768 27.3015 131.768 29.9497ZM165.955 15.7279L157.585 39.2021H150.85L142.546 15.7279H149.248L154.414 31.9768L159.743 15.7279H165.955ZM175.811 39.2021V37.5021C174.568 38.9079 173.032 39.5291 170.776 39.5291C167.114 39.5291 164.662 37.3386 164.662 34.0038C164.662 30.5709 167.441 28.7074 172.476 28.7074C173.424 28.7074 174.307 28.7728 175.059 28.9035V28.0535C175.059 26.5169 174.176 25.6668 172.607 25.6668C171.07 25.6668 170.155 26.5169 169.958 28.0535H164.924C165.251 23.9667 168.291 21.2858 172.639 21.2858C177.478 21.2858 180.322 23.9014 180.322 28.3477V39.2021H175.811ZM169.926 33.8403C169.926 34.9846 170.71 35.6712 172.084 35.6712C173.947 35.6712 175.059 34.7885 175.059 33.3499V32.2383C174.209 32.0749 173.555 32.0095 172.836 32.0095C170.939 32.0095 169.926 32.6307 169.926 33.8403ZM194.236 31.6498V21.6128H199.827V39.2021H194.694V37.3059C193.713 38.6137 191.849 39.5291 189.79 39.5291C186.291 39.5291 183.643 37.3386 183.643 32.696V21.6128H189.234V31.6498C189.234 33.5788 190.182 34.5269 191.751 34.5269C192.863 34.5269 194.236 33.6442 194.236 31.6498ZM209.13 39.2021H203.474V15.7279H209.13V39.2021ZM224.6 33.7096V38.581C223.357 39.2675 222.18 39.5291 220.611 39.5291C216.655 39.5291 214.334 37.1751 214.334 33.1538V26.4842H211.064V21.6128H214.334V16.4471H219.924V21.6128H224.73V26.4842H219.924V31.846C219.924 33.5461 220.644 34.3307 222.18 34.3307C223.096 34.3307 223.978 34.1019 224.6 33.7096Z" fill="url(#paint0_linear_12005_25124)"/>
<path d="M146.488 63.21C143.66 63.21 141.448 60.914 141.448 57.96C141.448 55.02 143.66 52.738 146.488 52.738C149.134 52.738 151.206 54.502 151.556 57.078H149.302C149.064 55.636 147.944 54.642 146.516 54.642C144.794 54.642 143.632 56 143.632 57.96C143.632 59.934 144.794 61.306 146.516 61.306C147.944 61.306 149.05 60.298 149.302 58.856H151.556C151.206 61.46 149.134 63.21 146.488 63.21ZM154.834 63H152.874V52.948H154.834V63ZM158.833 53.788C158.833 54.446 158.301 54.936 157.531 54.936C156.775 54.936 156.243 54.446 156.243 53.788C156.243 53.102 156.775 52.612 157.531 52.612C158.301 52.612 158.833 53.102 158.833 53.788ZM158.525 63H156.579V55.524H158.525V63ZM163.505 63.126C161.265 63.126 159.767 61.572 159.767 59.234C159.767 57.008 161.321 55.384 163.477 55.384C165.843 55.384 167.411 57.302 167.061 59.738H161.755C161.881 60.956 162.469 61.628 163.463 61.628C164.317 61.628 164.891 61.208 165.115 60.466H167.047C166.627 62.16 165.325 63.126 163.505 63.126ZM163.435 56.812C162.525 56.812 161.951 57.4 161.783 58.506H165.003C164.947 57.47 164.359 56.812 163.435 56.812ZM170.31 58.926V63H168.364V55.524H170.156V56.588C170.702 55.846 171.472 55.384 172.452 55.384C173.95 55.384 174.986 56.364 174.986 58.17V63H173.054V58.828C173.054 57.722 172.62 57.106 171.738 57.106C170.968 57.106 170.31 57.722 170.31 58.926ZM181.256 61.11V62.804C180.78 63.042 180.332 63.14 179.758 63.14C178.218 63.14 177.252 62.258 177.252 60.578V57.19H175.74V55.524H177.252V53.312H179.184V55.524H181.326V57.19H179.184V60.13C179.184 60.998 179.576 61.348 180.276 61.348C180.64 61.348 180.976 61.264 181.256 61.11ZM189.318 59.724H187.736V63H185.608V52.948H189.318C191.768 52.948 193.294 54.11 193.294 56.294C193.294 58.478 191.768 59.724 189.318 59.724ZM189.304 54.74H187.736V57.932H189.304C190.508 57.932 191.18 57.302 191.18 56.308C191.18 55.314 190.508 54.74 189.304 54.74ZM197.74 63.14C195.57 63.14 193.946 61.432 193.946 59.262C193.946 57.078 195.57 55.384 197.74 55.384C199.91 55.384 201.534 57.078 201.534 59.262C201.534 61.432 199.91 63.14 197.74 63.14ZM197.74 61.418C198.706 61.418 199.532 60.648 199.532 59.262C199.532 57.876 198.706 57.12 197.74 57.12C196.774 57.12 195.948 57.876 195.948 59.262C195.948 60.648 196.774 61.418 197.74 61.418ZM204.722 59.374V63H202.776V55.524H204.568V56.966C205.114 56.014 206.276 55.44 207.48 55.44V57.456C205.828 57.33 204.722 57.722 204.722 59.374ZM213.618 61.11V62.804C213.142 63.042 212.694 63.14 212.12 63.14C210.58 63.14 209.614 62.258 209.614 60.578V57.19H208.102V55.524H209.614V53.312H211.546V55.524H213.688V57.19H211.546V60.13C211.546 60.998 211.938 61.348 212.638 61.348C213.002 61.348 213.338 61.264 213.618 61.11ZM219.328 63V62.076C218.838 62.776 218.096 63.14 217.074 63.14C215.52 63.14 214.484 62.23 214.484 60.83C214.484 59.374 215.66 58.59 217.844 58.59C218.264 58.59 218.628 58.618 219.09 58.674V58.226C219.09 57.386 218.614 56.896 217.802 56.896C216.962 56.896 216.458 57.386 216.388 58.226H214.638C214.75 56.504 215.996 55.384 217.802 55.384C219.762 55.384 220.91 56.462 220.91 58.296V63H219.328ZM216.318 60.774C216.318 61.404 216.766 61.796 217.494 61.796C218.488 61.796 219.09 61.25 219.09 60.382V59.85C218.628 59.78 218.306 59.752 217.97 59.752C216.864 59.752 216.318 60.102 216.318 60.774ZM224.547 63H222.587V52.948H224.547V63Z" fill="#57B2B5"/>
<defs>
<linearGradient id="paint0_linear_12005_25124" x1="31.8516" y1="26.2021" x2="225.852" y2="26.2021" gradientUnits="userSpaceOnUse">
<stop offset="0.315" stop-color="#57B2B5"/>
<stop offset="0.69" stop-color="#060606"/>
<stop offset="1" stop-color="#060606"/>
</linearGradient>
</defs>
</svg>
